<svg xmlns="http://www.w3.org/2000/svg" viewBox="0 0 256 256"><defs><style>.cls-1{fill:#f6f6fc;}.cls-2{fill:#4a00ff;}</style></defs><rect class="cls-1" width="256" height="256"/><rect class="cls-2" x="170.21" y="53.58" width="10.09" height="148.83"/><path d="M120,115.31c-10.82-1.36-14.88-3-14.88-7.28,0-4,3.38-6.93,10-6.93,6.94,0,10.15,2.88,11.33,8.79h27.4c-2-21.13-17.25-28.57-39.06-28.57-20.47,0-37.88,9.47-37.88,29.08,0,18.43,10,25.37,33.65,28.41,12.17,1.69,16.4,3.72,16.4,7.95,0,4.4-3.38,7.27-10.82,7.27-8.63,0-11.5-3.55-12.52-10H75.7c.68,19.62,15.39,30.1,40.59,30.1,24.52,0,40.08-9.47,40.08-30.44C156.37,124.78,144.53,118.35,120,115.31Z"/></svg>